<svg width="201" height="140" viewBox="0 0 201 140" fill="none" xmlns="http://www.w3.org/2000/svg">
<rect x="0.5" y="0.5" width="200" height="139" fill="#F5F5F5"/>
<rect x="0.5" y="0.5" width="200" height="139" stroke="#B6B8BF"/>
<g clip-path="url(#clip0_1109_2586)">
<path d="M85.5 56.6667V51.6667H88.8333V56.6667H93.8333V60H88.8333V65H85.5V60H80.5V56.6667H85.5ZM90.5 66.6667V61.6667H95.5V56.6667H107.167L110.217 60H118.833V86.6667H85.5V66.6667H90.5ZM102.167 81.6667C106.767 81.6667 110.5 77.9333 110.5 73.3333C110.5 68.7333 106.767 65 102.167 65C97.5667 65 93.8333 68.7333 93.8333 73.3333C93.8333 77.9333 97.5667 81.6667 102.167 81.6667ZM97.1667 73.3333C97.1667 76.1 99.4 78.3333 102.167 78.3333C104.933 78.3333 107.167 76.1 107.167 73.3333C107.167 70.5667 104.933 68.3333 102.167 68.3333C99.4 68.3333 97.1667 70.5667 97.1667 73.3333Z" fill="#B6B8BF"/>
</g>
<defs>
<clipPath id="clip0_1109_2586">
<rect width="40" height="40" fill="white" transform="translate(80.5 50)"/>
</clipPath>
</defs>
</svg>
